<svg height="496pt" viewBox="0 0 496 496" width="496pt" xmlns="http://www.w3.org/2000/svg" xmlns:xlink="http://www.w3.org/1999/xlink"><linearGradient id="a" gradientUnits="userSpaceOnUse" x1="248" x2="248" y1="496" y2="0"><stop offset="0" stop-color="#9f2fff"/><stop offset="1" stop-color="#0bb1d3"/></linearGradient><path d="m384 177.296875 6.289062 18.871094c2.542969 7.632812 6.765626 14.3125 12.101563 19.832031h-34.390625v-96c0-8.824219 7.175781-16 16-16s16 7.175781 16 16v16h16v-16c0-17.648438-14.351562-32-32-32s-32 14.351562-32 32v96h-64v-16h16c13.230469 0 24-10.769531 24-24v-56c0-13.230469-10.769531-24-24-24h-56v-50.007812c0-25.359376-20.632812-45.992188-45.992188-45.992188-13.855468 0-26.832031 6.152344-35.59375 16.863281l-44.207031 54.023438-23.574219-23.574219c-4.65625-4.648438-11.089843-7.3125-17.664062-7.3125-13.769531 0-24.96875 11.199219-24.96875 24.96875 0 6.574219 2.664062 13.007812 7.3125 17.65625l62.0625 62.0625c4.648438 4.648438 11.082031 7.3125 17.65625 7.3125 13.769531 0 24.96875-11.199219 24.96875-24.96875 0-6.574219-2.664062-13.007812-7.3125-17.65625l-27.113281-27.109375 45.226562-55.265625c5.703125-6.992188 14.167969-11 23.207031-11 16.535157 0 29.992188 13.457031 29.992188 29.992188v50.007812h-24c-13.230469 0-24 10.769531-24 24v56c0 13.230469 10.769531 24 24 24h16v16h-8c-13.230469 0-24 10.769531-24 24v24h-59.425781l-70.367188-119.617188c-5.941406-10.109374-16.917969-16.382812-28.984375-16.382812-18.320312 0-33.222656 14.902344-33.222656 33.222656 0 5.832032 1.542969 11.59375 4.480469 16.648438l75.359375 130.167968c7.121094 12.3125 20.382812 19.960938 34.617187 19.960938h13.542969v16c0 8.824219 7.175781 16 16 16h72.207031c5.449219 7.191406 13.199219 12.472656 22.21875 14.710938l42.710938 42.714843c-11.601563 7.941407-21.441407 18.34375-28.816407 30.574219h-188.320312v48h384v-16l-.183594-1.734375c-9.945312-44.722656-48.03125-76.25-93.410156-78.089844l-40.183594-40.175781h37.777344c8.824219 0 16-7.175781 16-16v-16h19.960938l56.253906 48.414062c5.6875 4.890626 12.953125 7.585938 20.449218 7.585938 17.28125 0 31.335938-14.054688 31.335938-31.457031 0-8.941407-3.832031-17.488281-10.519531-23.421875l-61.886719-55.015625c-7.335938-6.519531-16.769531-10.105469-26.578125-10.105469h-189.015625v-24c0-4.414062 3.585938-8 8-8h256c4.414062 0 8 3.585938 8 8v32h16v-32c0-11.480469-8.113281-21.078125-18.894531-23.425781 5.589843-5.613281 9.972656-12.519531 12.597656-20.398438l6.296875-18.878906v-25.296875h-112zm-232-50.265625c0 4.945312-4.023438 8.96875-8.96875 8.96875-2.359375 0-4.671875-.953125-6.34375-2.625l-62.0625-62.0625c-1.671875-1.671875-2.625-3.984375-2.625-6.34375 0-4.945312 4.023438-8.96875 8.96875-8.96875 2.359375 0 4.671875.953125 6.34375 2.625l62.0625 62.0625c1.671875 1.671875 2.625 3.984375 2.625 6.34375zm-8 216.96875v-16h64.808594c-.527344 2.585938-.808594 5.265625-.808594 8s.28125 5.414062.808594 8zm80-8c0-13.230469 10.769531-24 24-24s24 10.769531 24 24-10.769531 24-24 24-24-10.769531-24-24zm-144 144v-16h164.542969c-1.75 4.59375-3.261719 9.328125-4.359375 14.265625l-.015625 1.734375zm351.792969 0h-175.585938c9.21875-37.777344 42.496094-64 81.546875-64h12.484375c39.058594 0 72.328125 26.222656 81.554688 64zm-99.9375-79.753906c-12.863281.746094-25.128907 3.824218-36.28125 8.976562l-35.34375-35.335937c7.890625-2.550781 14.671875-7.414063 19.570312-13.886719h11.808594zm20.144531-56.246094h-64.808594c.527344-2.585938.808594-5.265625.808594-8s-.28125-5.414062-.808594-8h64.808594zm60.960938-57.9375 61.886718 55.015625c3.28125 2.914063 5.152344 7.089844 5.152344 11.585937 0 8.457032-6.878906 15.335938-15.335938 15.335938-3.671874 0-7.222656-1.320312-10.007812-3.710938l-56.257812-48.417968c-2.902344-2.496094-6.605469-3.871094-10.4375-3.871094h-108.167969c-7.3125-9.65625-18.785157-16-31.792969-16s-24.488281 6.34375-31.792969 16h-101.75c-8.535156 0-16.496093-4.585938-20.777343-11.976562l-75.359376-130.167969c-1.511718-2.625-2.320312-5.609375-2.320312-8.632813 0-9.496094 7.726562-17.222656 17.566406-17.222656 6.082032 0 11.769532 3.257812 14.839844 8.496094l70.371094 119.617187c2.863281 4.863281 8.152344 7.886719 13.796875 7.886719h264.441406c5.878906 0 11.542969 2.160156 15.945313 6.0625zm-204.960938-174.0625h96c4.414062 0 8 3.585938 8 8v32h-112v-32c0-4.414062 3.585938-8 8-8zm-8 64v-8h112v8c0 4.414062-3.585938 8-8 8h-96c-4.414062 0-8-3.585938-8-8zm40 24h32v16h-32zm160-32h80v6.703125l-5.480469 16.410156c-4.953125 14.886719-18.824219 24.886719-34.519531 24.886719s-29.566406-10-34.527344-24.886719l-5.472656-16.410156zm0 0" fill="url(#a)"/></svg>